<?xml version="1.0" standalone="no"?>
<!DOCTYPE svg PUBLIC "-//W3C//DTD SVG 20010904//EN"
 "http://www.w3.org/TR/2001/REC-SVG-20010904/DTD/svg10.dtd">
<svg version="1.0" xmlns="http://www.w3.org/2000/svg"
 width="512.000000pt" height="512.000000pt" viewBox="0 0 512.000000 512.000000"
 preserveAspectRatio="xMidYMid meet">
<metadata>
Created by potrace 1.14, written by Peter Selinger 2001-2017
</metadata>
<g transform="translate(0.000000,512.000000) scale(0.100000,-0.100000)"
fill="#000000" stroke="none">
<path d="M2350 4679 c-308 -34 -632 -142 -884 -296 -224 -136 -460 -350 -610
-552 -567 -764 -567 -1788 0 -2552 153 -207 405 -432 629 -564 661 -390 1498
-390 2156 -3 229 135 479 359 633 567 568 766 567 1787 -3 2556 -96 129 -298
331 -430 429 -286 212 -607 347 -957 402 -121 18 -419 26 -534 13z m396 -250
c438 -42 845 -236 1154 -548 661 -668 732 -1708 169 -2456 -182 -241 -397
-421 -669 -557 -603 -301 -1332 -251 -1893 131 -558 380 -874 1035 -819 1699
39 463 225 868 551 1192 399 396 950 594 1507 539z"/>
<path d="M1514 3046 c-48 -22 -74 -61 -74 -115 0 -84 40 -115 165 -125 228
-20 406 -98 559 -245 165 -159 256 -354 273 -584 7 -107 28 -145 90 -166 35
-13 46 -13 79 0 83 32 100 105 69 294 -65 401 -339 737 -720 880 -148 56 -381
89 -441 61z"/>
<path d="M3455 3049 c-224 -21 -443 -116 -621 -269 -111 -95 -114 -102 -70
-175 19 -33 45 -83 57 -112 12 -29 25 -53 29 -53 4 0 15 11 23 23 28 43 139
147 199 188 132 90 281 142 445 155 48 4 100 13 115 21 60 30 78 128 32 182
-24 28 -79 53 -114 50 -8 -1 -51 -5 -95 -10z"/>
</g>
</svg>
